<svg width="24" height="21" viewBox="0 0 24 21" fill="none" xmlns="http://www.w3.org/2000/svg">
<path d="M16.4919 2.20396C17.8063 2.27663 19.0387 2.86586 19.9206 3.84326C20.8025 4.82067 21.2623 6.107 21.1999 7.42196C21.1999 10.494 18.5479 12.381 16.0029 14.644C13.4909 16.887 12.1379 18.113 11.6999 18.396C11.2229 18.087 9.55687 16.573 7.39687 14.644C4.84087 12.372 2.19987 10.467 2.19987 7.42196C2.13744 6.107 2.59726 4.82067 3.47913 3.84326C4.361 2.86586 5.59344 2.27663 6.90787 2.20396C7.63602 2.18189 8.35743 2.34914 9.00159 2.68936C9.64574 3.02958 10.1906 3.53112 10.5829 4.14496C11.4229 5.31996 11.5629 5.90796 11.7029 5.90796C11.8429 5.90796 11.9809 5.31996 12.8129 4.14196C13.2029 3.52528 13.748 3.02175 14.3936 2.68167C15.0392 2.34159 15.7627 2.17687 16.4919 2.20396ZM16.4919 0.20396C15.5838 0.174887 14.6809 0.351043 13.8503 0.719311C13.0198 1.08758 12.283 1.63847 11.6949 2.33096C11.1072 1.64049 10.372 1.09087 9.54342 0.722712C8.71485 0.354557 7.81416 0.177273 6.90787 0.20396C5.06274 0.276112 3.32125 1.07594 2.06421 2.42855C0.807172 3.78117 0.136867 5.5765 0.199873 7.42196C0.199873 11.032 2.74987 13.249 5.21487 15.392C5.49787 15.638 5.78387 15.886 6.06787 16.139L7.09487 17.057C8.21491 18.1227 9.38914 19.1301 10.6129 20.075C10.9367 20.2846 11.3141 20.3961 11.6999 20.3961C12.0856 20.3961 12.4631 20.2846 12.7869 20.075C14.0496 19.1012 15.2599 18.0614 16.4129 16.96L17.3349 16.136C17.6279 15.876 17.9249 15.617 18.2199 15.362C20.5539 13.337 23.1999 11.042 23.1999 7.42196C23.2629 5.5765 22.5926 3.78117 21.3355 2.42855C20.0785 1.07594 18.337 0.276112 16.4919 0.20396Z" fill="#F5F5F5"/>
</svg>
